<?xml version="1.0" standalone="no"?>
<!DOCTYPE svg PUBLIC "-//W3C//DTD SVG 20010904//EN"
 "http://www.w3.org/TR/2001/REC-SVG-20010904/DTD/svg10.dtd">
<svg version="1.0" xmlns="http://www.w3.org/2000/svg"
 width="512.000000pt" height="520.000000pt" viewBox="0 0 512.000000 520.000000"
 preserveAspectRatio="xMidYMid meet">

<g transform="translate(0.000000,520.000000) scale(0.100000,-0.100000)"
fill="#000000" stroke="none">
<path d="M2398 5190 c-177 -32 -351 -137 -453 -272 -309 -407 -135 -977 350
-1145 72 -24 94 -27 220 -28 156 0 207 11 330 71 147 73 253 182 330 339 197
403 -14 879 -450 1014 -79 25 -249 36 -327 21z m306 -185 c267 -93 429 -374
372 -645 -63 -299 -340 -495 -638 -452 -276 39 -488 286 -488 567 0 71 33 194
72 268 78 147 248 264 423 291 62 9 190 -5 259 -29z"/>
<path d="M1380 5035 l-54 -55 49 -50 49 -50 -265 -2 -264 -3 0 -80 0 -80 264
-3 265 -2 -49 -50 -50 -50 58 -58 57 -57 129 129 c71 71 131 139 133 151 3 12
1 33 -4 46 -8 22 -245 269 -258 269 -3 0 -30 -25 -60 -55z"/>
<path d="M1535 4389 c-158 -82 -346 -219 -489 -358 -325 -318 -520 -684 -607
-1146 -15 -80 -22 -168 -26 -324 l-6 -214 54 6 c30 4 66 7 80 7 l26 0 6 193
c6 210 25 336 77 519 141 491 474 901 942 1161 l66 37 -31 70 c-18 38 -36 70
-42 70 -5 -1 -28 -10 -50 -21z"/>
<path d="M3411 4343 c-38 -77 -39 -72 54 -120 174 -89 404 -279 550 -453 239
-287 406 -675 440 -1025 3 -33 8 -79 11 -102 l5 -43 81 0 80 0 -6 78 c-62 716
-450 1327 -1071 1681 -49 28 -94 51 -100 51 -6 0 -26 -30 -44 -67z"/>
<path d="M4710 3878 l0 -262 -50 49 -50 50 -58 -58 -57 -57 132 -132 c120
-120 135 -132 168 -132 33 0 48 12 168 132 l132 132 -57 57 -58 58 -50 -50
-50 -49 0 262 0 262 -85 0 -85 0 0 -262z"/>
<path d="M2277 3492 l-57 -58 60 -59 c33 -33 56 -62 52 -66 -4 -4 -25 -12 -47
-19 -173 -54 -333 -198 -421 -375 -129 -262 -89 -563 106 -796 36 -42 165
-149 180 -149 3 0 23 30 44 67 l39 67 -34 25 c-258 189 -322 526 -148 786 58
86 132 151 222 194 115 55 114 55 63 -48 -26 -50 -46 -93 -46 -96 0 -2 31 -21
70 -40 l70 -35 85 170 c47 93 85 182 85 197 0 21 -28 55 -133 160 l-132 134
-58 -59z"/>
<path d="M2846 3166 c-20 -35 -36 -66 -36 -69 0 -3 29 -28 64 -55 80 -63 158
-177 188 -275 32 -103 30 -244 -5 -346 -56 -162 -180 -290 -337 -350 -30 -12
-56 -21 -58 -21 -1 0 18 40 43 90 25 49 45 92 45 95 0 2 -31 21 -70 40 l-70
35 -85 -170 c-47 -93 -85 -182 -85 -197 0 -21 29 -55 132 -160 l132 -133 58
57 58 57 -61 62 c-34 34 -57 64 -53 66 5 3 27 11 49 18 150 46 305 175 398
331 161 271 115 633 -108 863 -52 53 -143 126 -158 126 -3 0 -21 -29 -41 -64z"/>
<path d="M3711 2429 c-52 -21 -50 5 -51 -725 l0 -681 26 -24 26 -24 680 0 680
0 24 28 24 28 0 674 0 674 -24 28 -24 28 -669 2 c-415 1 -677 -2 -692 -8z
m1249 -724 l0 -565 -570 0 -570 0 0 565 0 565 570 0 570 0 0 -565z"/>
<path d="M757 2413 c-32 -36 -757 -1337 -757 -1359 0 -13 11 -36 24 -51 l24
-28 724 -3 c397 -2 742 0 766 3 54 8 82 35 82 78 0 26 -89 192 -370 693 -204
362 -378 665 -387 672 -25 18 -87 15 -106 -5z m362 -767 c155 -275 281 -501
281 -503 0 -1 -265 -3 -589 -3 l-589 0 296 526 c275 490 296 524 308 502 7
-12 139 -248 293 -522z"/>
<path d="M3540 858 c-92 -58 -288 -150 -400 -187 -495 -161 -1007 -129 -1465
94 -71 35 -149 75 -172 90 l-43 26 -36 -57 c-20 -32 -37 -64 -38 -73 -1 -22
192 -128 344 -190 245 -99 451 -141 725 -148 377 -11 688 58 1016 222 83 42
201 110 227 130 4 4 -81 135 -88 135 -3 0 -34 -19 -70 -42z"/>
<path d="M643 678 l-133 -132 57 -58 57 -58 53 52 53 52 0 -267 0 -267 80 0
80 0 0 267 0 267 53 -52 53 -52 57 58 57 57 -133 133 c-175 175 -157 175 -334
0z"/>
</g>
</svg>
