<?xml version="1.0" standalone="no"?>
<!DOCTYPE svg PUBLIC "-//W3C//DTD SVG 20010904//EN"
 "http://www.w3.org/TR/2001/REC-SVG-20010904/DTD/svg10.dtd">
<svg version="1.0" xmlns="http://www.w3.org/2000/svg"
 width="1280.000000pt" height="824.000000pt" viewBox="0 0 1280.000000 824.000000"
 preserveAspectRatio="xMidYMid meet">
<g transform="translate(0.000000,824.000000) scale(0.100000,-0.100000)"
fill="#000000" stroke="none">
<path d="M4555 8230 c-49 -5 -166 -13 -260 -20 -1744 -121 -3272 -898 -3928
-1998 -318 -533 -416 -1112 -286 -1692 55 -243 199 -572 351 -800 265 -398
660 -769 1121 -1054 42 -26 77 -55 77 -63 0 -32 -155 -271 -268 -413 -257
-324 -607 -663 -1088 -1053 -99 -80 -202 -170 -229 -198 -46 -49 -47 -53 -30
-65 84 -62 713 73 1275 273 489 174 1100 452 1646 749 105 57 200 104 212 104
12 0 59 -9 104 -19 504 -117 998 -172 1558 -172 631 0 1150 64 1723 210 1578
404 2726 1347 3007 2471 72 285 81 642 24 945 -67 361 -258 762 -519 1090
-749 940 -2142 1574 -3705 1685 -85 6 -210 15 -278 20 -139 11 -374 11 -507 0z"/>
<path d="M10116 4748 c-52 -367 -103 -563 -210 -821 -229 -551 -666 -1083
-1237 -1505 -441 -326 -1035 -622 -1609 -802 l-134 -43 82 -78 c439 -417 1162
-724 1922 -818 405 -50 725 -53 1110 -10 211 23 521 84 691 134 45 14 91 25
101 25 11 0 88 -42 171 -94 558 -343 1101 -589 1516 -687 69 -16 142 -34 162
-39 52 -14 74 -12 98 8 l22 17 -36 43 c-20 23 -71 70 -113 104 -460 372 -707
662 -802 942 -16 47 -32 107 -36 134 l-6 49 78 64 c385 311 611 633 704 1003
125 493 -6 976 -381 1411 -411 476 -1141 843 -1929 970 -52 8 -109 17 -127 20
-30 5 -32 4 -37 -27z"/>
</g>
</svg>
