<?xml version="1.0" standalone="no"?>
<!DOCTYPE svg PUBLIC "-//W3C//DTD SVG 20010904//EN"
 "http://www.w3.org/TR/2001/REC-SVG-20010904/DTD/svg10.dtd">
<svg version="1.0" xmlns="http://www.w3.org/2000/svg"
 width="840.000000pt" height="880.000000pt" viewBox="0 0 840.000000 880.000000"
 preserveAspectRatio="xMidYMid meet">

<g transform="translate(0.000000,880.000000) scale(0.100000,-0.100000)"
fill="#000000" stroke="none">
<path d="M3900 8383 c-25 -2 -101 -10 -170 -18 -906 -110 -1705 -500 -2350
-1145 -637 -636 -1012 -1397 -1141 -2310 -26 -189 -37 -614 -20 -825 92 -1152
667 -2198 1586 -2885 1391 -1040 3280 -1070 4695 -76 1168 822 1810 2199 1685
3616 -33 382 -110 721 -240 1065 -548 1447 -1870 2445 -3410 2575 -110 9 -527
11 -635 3z m-1640 -1571 c20 -9 44 -33 55 -54 17 -33 18 -41 7 -90 -25 -101
-25 -112 -4 -138 19 -24 26 -25 167 -30 130 -4 148 -7 161 -24 17 -23 18 -45
4 -82 -8 -21 -7 -31 5 -44 25 -28 103 -57 185 -69 155 -23 203 -47 219 -107 8
-30 15 -35 76 -54 22 -6 70 -31 106 -55 84 -55 135 -80 178 -89 55 -10 300
-105 371 -143 74 -40 143 -102 161 -146 11 -26 10 -31 -7 -44 -30 -23 -134
-11 -250 30 -136 47 -174 53 -218 32 -26 -12 -39 -28 -52 -61 -16 -41 -15 -61
5 -361 48 -703 82 -920 196 -1251 25 -73 61 -166 80 -206 116 -245 487 -690
725 -870 311 -235 651 -387 1051 -469 l109 -22 109 110 c129 129 193 169 260
162 92 -10 90 -55 -9 -175 -91 -112 -81 -129 71 -117 77 6 100 3 186 -20 117
-32 159 -29 214 15 l39 31 31 -23 c29 -22 43 -23 216 -28 179 -5 185 -6 204
-29 26 -32 26 -114 0 -140 -24 -24 -95 -46 -191 -61 -103 -16 -168 -36 -211
-64 -35 -24 -38 -24 -80 -9 -66 23 -154 12 -303 -36 -98 -32 -155 -44 -235
-51 -58 -5 -153 -16 -211 -24 -365 -52 -826 -43 -1325 25 -448 61 -849 204
-1180 420 -126 83 -377 283 -475 380 -78 77 -222 256 -357 444 -210 295 -420
703 -543 1060 -23 66 -72 246 -110 400 -81 332 -107 417 -168 549 -39 87 -45
108 -45 168 0 89 41 177 115 243 64 57 105 79 232 121 54 18 106 40 114 48 14
13 10 14 -34 1 -27 -7 -67 -23 -89 -34 -78 -42 -135 -12 -121 63 8 39 61 92
104 102 121 27 156 48 183 110 24 53 19 112 -12 140 -10 9 -19 25 -19 34 0 18
56 73 127 125 54 39 87 88 78 114 -3 12 -25 36 -47 54 -78 62 -111 158 -70
206 43 51 153 68 222 33z"/>
<path d="M2141 6798 c-54 -29 -86 -117 -53 -150 10 -10 11 -6 6 19 l-6 32 88
3 c102 3 114 15 67 67 -33 36 -69 46 -102 29z"/>
<path d="M2388 6429 c-10 -5 -18 -14 -18 -19 0 -13 81 -12 100 0 34 23 -45 41
-82 19z"/>
<path d="M2417 6278 c-12 -38 45 -135 99 -169 19 -11 46 -19 61 -17 27 3 28 5
26 52 -1 46 0 48 23 43 13 -2 24 -1 24 4 0 18 -58 51 -132 74 -91 29 -95 29
-101 13z"/>
<path d="M2277 6159 c-80 -23 -138 -50 -119 -57 7 -2 28 4 48 13 25 12 58 16
125 14 49 -1 93 1 97 5 10 10 -39 46 -63 45 -11 0 -51 -9 -88 -20z"/>
<path d="M2765 6103 c-11 -2 -83 -22 -160 -43 -77 -22 -214 -58 -304 -81 -168
-41 -254 -70 -234 -76 7 -3 47 7 90 21 163 51 288 57 368 16 l37 -19 -6 24
c-7 29 2 55 19 55 7 0 26 -16 42 -36 59 -74 82 -94 107 -94 31 0 56 42 56 95
l0 36 35 -27 c46 -35 55 -24 20 21 -25 33 -26 39 -14 67 10 25 10 31 -2 39
-15 9 -21 9 -54 2z"/>
<path d="M3050 5909 c-187 -28 -294 -53 -515 -119 -183 -56 -300 -86 -457
-119 -35 -8 -58 -18 -58 -26 0 -7 21 -23 48 -35 44 -21 46 -23 25 -33 -33 -14
-28 -35 12 -58 40 -24 43 -34 16 -49 -48 -25 -155 4 -197 53 -19 23 -25 39
-22 64 2 18 2 33 0 33 -19 0 -156 -37 -188 -50 -60 -26 -112 -76 -124 -119
-12 -47 8 -122 44 -166 l25 -30 1 85 c0 93 22 160 58 179 22 12 105 15 115 5
4 -4 -8 -14 -26 -23 -68 -34 -33 -116 68 -162 69 -32 105 -21 105 32 0 31 9
34 114 45 l69 7 -6 -30 c-5 -28 -4 -30 16 -26 65 14 135 42 250 100 134 67
219 93 302 91 140 -2 552 84 653 136 98 51 156 153 122 217 -10 18 -22 19
-168 18 -98 0 -204 -8 -282 -20z m60 -29 c28 -28 36 -68 17 -87 -12 -12 -23
-13 -54 -6 -33 7 -38 13 -41 40 -6 65 37 94 78 53z m175 -10 c3 -6 -14 -19
-39 -30 -26 -11 -46 -26 -46 -35 0 -8 -4 -15 -10 -15 -20 0 -10 32 19 61 30
29 64 38 76 19z m-476 -95 c9 -9 -14 -26 -50 -35 -30 -8 -48 -8 -74 1 -30 11
-42 10 -84 -5 -28 -10 -58 -16 -68 -14 -30 7 60 48 125 58 50 7 141 4 151 -5z
m-299 -73 c0 -13 -12 -22 -22 -16 -10 6 -1 24 13 24 5 0 9 -4 9 -8z m-72 -48
c31 -21 27 -41 -8 -46 -40 -6 -74 12 -78 40 -3 19 1 22 30 22 18 0 44 -7 56
-16z m-153 -4 c-3 -5 -13 -10 -21 -10 -8 0 -12 5 -9 10 3 6 13 10 21 10 8 0
12 -4 9 -10z m55 -63 c40 -26 77 -84 63 -98 -6 -6 -30 2 -66 21 -31 16 -66 30
-77 30 -28 0 -26 35 2 54 30 21 39 20 78 -7z"/>
<path d="M3780 5761 c0 -7 14 -20 32 -29 17 -9 42 -28 55 -42 20 -20 26 -22
33 -10 18 29 -28 74 -88 86 -21 4 -32 3 -32 -5z"/>
<path d="M3248 5565 c-14 -8 -58 -19 -97 -25 -96 -13 -155 -27 -199 -46 -34
-15 -35 -17 -18 -27 10 -7 31 -22 45 -34 l26 -22 -25 -1 c-14 0 -59 9 -100 20
-92 24 -90 24 -90 2 0 -35 -32 -52 -97 -52 -58 0 -60 -1 -56 -24 10 -50 -110
-109 -212 -104 -57 3 -60 2 -69 -25 -9 -23 -4 -39 27 -102 43 -88 44 -96 16
-134 -17 -24 -32 -30 -77 -36 -30 -4 -65 -11 -77 -17 -23 -10 -45 -47 -45 -73
0 -9 -10 -15 -24 -15 -32 0 -41 -29 -23 -72 21 -50 52 -73 79 -61 16 7 34 6
60 -3 110 -38 144 -116 122 -278 -6 -40 -10 -47 -28 -44 -28 4 -66 73 -66 121
0 30 5 40 25 49 14 6 25 16 25 21 0 12 -75 87 -87 87 -12 0 -54 -41 -94 -91
l-29 -37 26 -17 c50 -33 104 -88 104 -106 0 -11 -9 -27 -19 -36 -19 -15 -18
-17 22 -37 50 -25 80 -68 102 -144 26 -90 61 -115 101 -71 10 12 27 24 37 28
15 6 3 21 -69 93 -94 92 -101 114 -33 103 l40 -7 -7 80 -7 79 31 16 31 15 -6
-97 c-8 -126 4 -134 81 -61 34 32 59 48 69 44 18 -7 95 -107 108 -141 22 -57
-38 -81 -118 -48 -20 8 -38 13 -41 10 -5 -4 34 -44 101 -103 54 -48 68 -75 72
-138 5 -82 28 -110 89 -107 30 1 46 -3 46 -11 0 -7 7 -21 15 -32 13 -16 16
-17 25 -4 5 8 10 30 10 48 0 30 2 33 23 26 71 -22 93 -43 127 -127 16 -40 32
-63 44 -65 22 -5 18 13 -26 111 -16 38 -28 70 -26 73 9 9 150 -148 165 -183
27 -66 -4 -108 -90 -121 l-44 -7 75 -62 c50 -42 88 -65 111 -69 60 -10 67 -13
105 -50 41 -40 76 -102 76 -137 0 -62 -63 -63 -177 -1 -88 48 -173 80 -173 64
0 -18 88 -67 230 -129 80 -35 213 -98 295 -140 148 -75 151 -77 272 -199 136
-136 137 -138 28 -136 -100 1 -198 59 -135 79 11 3 20 10 20 14 0 11 -115 35
-134 28 -21 -8 -9 -44 29 -81 40 -41 116 -63 253 -74 56 -5 105 -12 108 -15 4
-3 -4 -20 -16 -36 -22 -32 -20 -51 7 -51 14 0 14 -2 -1 -19 -22 -24 -16 -36
34 -61 32 -17 44 -18 65 -8 36 16 67 -1 111 -62 47 -65 67 -65 139 0 51 46 65
56 65 46 0 -2 -14 -20 -30 -41 -17 -21 -28 -40 -26 -42 2 -2 34 12 71 31 109
58 193 49 406 -42 63 -27 136 -52 162 -56 26 -4 73 -16 105 -28 31 -11 80 -20
107 -20 56 -1 133 28 118 43 -6 6 -66 24 -135 42 -134 35 -183 58 -176 85 4
15 -5 17 -71 17 -103 1 -165 30 -268 127 -67 64 -87 77 -143 93 -87 25 -190
68 -257 106 -128 73 -254 210 -238 259 5 17 -5 34 -52 83 -72 75 -136 160
-205 275 -29 48 -76 110 -105 139 -29 30 -53 58 -53 63 0 6 -4 10 -9 10 -6 0
-11 -15 -13 -32 l-3 -33 -21 45 c-23 51 -85 110 -114 110 -35 0 -25 44 17 79
l37 31 -21 22 c-11 13 -24 40 -27 61 -4 21 -23 91 -42 155 -20 64 -47 168 -60
231 -13 64 -26 122 -29 129 -9 24 -42 -6 -69 -60 -21 -45 -25 -49 -26 -26 0
39 20 127 31 134 6 3 16 0 24 -6 12 -10 17 -7 25 16 16 41 9 68 -18 72 -19 3
-23 8 -17 25 23 78 13 199 -16 182 -6 -4 -7 15 -2 52 5 32 8 109 8 172 -1 108
-2 114 -26 135 -24 20 -24 23 -12 76 32 142 25 299 -14 342 -19 22 -58 23 -95
3z m48 -229 c3 -14 1 -40 -4 -58 -17 -56 -22 -97 -12 -103 5 -3 17 20 26 52
19 69 34 89 34 48 0 -35 -22 -110 -44 -154 -32 -61 -86 -28 -86 52 0 36 25
138 40 168 15 27 38 24 46 -5z m-611 -290 c46 -27 55 -41 33 -48 -9 -3 -8 -12
6 -32 9 -15 15 -30 12 -33 -3 -4 -32 10 -63 30 -55 33 -58 38 -64 84 -4 26
-10 57 -14 68 -5 13 2 9 19 -12 14 -17 46 -43 71 -57z m73 51 c4 -30 -17 -37
-38 -12 -10 12 -10 18 0 30 18 22 34 14 38 -18z m-91 -179 c29 -10 62 -28 75
-38 22 -18 22 -19 3 -19 -11 -1 -40 9 -65 21 -25 12 -63 27 -84 33 -22 6 -42
17 -44 24 -5 16 36 8 115 -21z m542 -43 c0 -5 -6 -1 -14 9 -8 11 -15 27 -15
35 1 17 29 -26 29 -44z m-581 -15 c116 -77 134 -117 34 -74 -20 9 -58 22 -84
30 -34 10 -52 23 -67 48 -12 18 -21 38 -21 45 0 26 55 7 138 -49z m-142 -31
c55 -35 94 -68 94 -81 0 -4 -14 -8 -31 -8 -21 0 -45 13 -81 42 -91 78 -80 108
18 47z m-28 -68 c61 -31 81 -92 42 -131 -27 -27 -47 -17 -114 58 -74 83 -75
100 -3 50 41 -29 52 -17 23 25 -30 44 -33 56 -8 35 9 -9 36 -25 60 -37z m108
-108 c-10 -10 -19 5 -10 18 6 11 8 11 12 0 2 -7 1 -15 -2 -18z m74 6 c7 -11 9
-23 6 -26 -8 -9 -36 17 -36 33 0 21 18 17 30 -7z m681 -76 c-9 -15 -10 -11
-11 19 0 54 14 83 18 36 2 -21 -1 -46 -7 -55z m-294 25 c-2 -13 -4 -5 -4 17
-1 22 1 32 4 23 2 -10 2 -28 0 -40z m146 -1 c6 -26 15 -37 30 -39 20 -3 22 -9
22 -66 0 -43 4 -65 14 -71 17 -11 8 -68 -14 -97 -15 -18 -16 -18 -28 0 -7 10
-24 34 -39 53 -15 19 -30 54 -34 80 -7 48 -1 154 11 173 12 19 29 5 38 -33z
m202 1 c-12 -69 -24 -90 -24 -43 -1 49 8 85 21 85 6 0 7 -17 3 -42z m-583
-148 c36 -59 35 -35 -2 50 -34 78 -35 80 -17 80 25 0 177 -174 177 -202 0 -9
-7 -19 -16 -22 -12 -4 -15 -15 -12 -36 4 -28 3 -29 -13 -14 -18 16 -29 15 -61
-8 -13 -9 -20 -9 -33 2 -39 32 -105 208 -105 279 0 36 1 36 27 -24 15 -33 40
-80 55 -105z m-212 49 c0 -17 -4 -28 -10 -24 -5 3 -10 17 -10 31 0 13 5 24 10
24 6 0 10 -14 10 -31z m128 -57 c4 -38 -10 -41 -32 -7 -19 28 -13 48 12 43 11
-2 18 -15 20 -36z m739 -234 c-3 -7 -5 -2 -5 12 0 14 2 19 5 13 2 -7 2 -19 0
-25z m-528 -214 c3 -16 1 -17 -13 -5 -19 16 -21 34 -3 29 6 -3 14 -13 16 -24z
m196 -14 c3 -5 1 -10 -4 -10 -6 0 -11 5 -11 10 0 6 2 10 4 10 3 0 8 -4 11 -10z
m419 -52 c9 -12 16 -43 16 -67 0 -39 -2 -43 -14 -31 -7 8 -18 30 -25 49 -22
66 -8 94 23 49z m86 -288 c0 -16 -4 -30 -10 -30 -5 0 -10 14 -10 30 0 17 5 30
10 30 6 0 10 -13 10 -30z m190 -231 c0 -5 -7 -9 -15 -9 -17 0 -35 30 -35 57 1
15 5 13 25 -10 14 -15 25 -32 25 -38z m47 -111 c-3 -7 -5 -2 -5 12 0 14 2 19
5 13 2 -7 2 -19 0 -25z m129 -130 c41 -82 27 -105 -25 -41 -37 45 -61 93 -61
124 0 22 1 22 31 -7 17 -16 42 -50 55 -76z"/>
<path d="M2410 5339 c0 -5 5 -7 10 -4 6 3 10 8 10 11 0 2 -4 4 -10 4 -5 0 -10
-5 -10 -11z"/>
<path d="M1750 5295 c0 -8 6 -15 14 -15 7 0 19 7 26 15 11 13 8 15 -14 15 -16
0 -26 -5 -26 -15z"/>
<path d="M2130 5191 c0 -5 28 -19 63 -32 l62 -24 -47 -3 c-51 -3 -61 -15 -29
-32 30 -16 73 -12 109 10 40 24 42 54 5 68 -37 14 -163 24 -163 13z"/>
<path d="M1964 5115 c-8 -19 13 -45 36 -45 26 0 53 33 38 48 -17 17 -68 15
-74 -3z"/>
<path d="M2080 5051 c0 -12 29 -23 41 -15 18 10 9 24 -16 24 -14 0 -25 -4 -25
-9z"/>
<path d="M1735 5031 c-3 -5 -1 -12 5 -16 5 -3 10 1 10 9 0 18 -6 21 -15 7z"/>
<path d="M2030 5005 c0 -8 7 -15 15 -15 8 0 15 7 15 15 0 8 -7 15 -15 15 -8 0
-15 -7 -15 -15z"/>
<path d="M1955 4891 c13 -22 76 -44 88 -32 17 17 -4 32 -53 38 -33 5 -41 3
-35 -6z"/>
<path d="M1790 4796 c0 -31 43 -67 48 -41 4 18 -24 65 -38 65 -6 0 -10 -11
-10 -24z"/>
<path d="M1973 4813 c-34 -13 2 -53 46 -53 26 0 27 14 1 40 -21 21 -26 22 -47
13z"/>
<path d="M1950 4731 c0 -7 44 -31 57 -31 3 0 0 6 -6 14 -13 16 -51 28 -51 17z"/>
<path d="M1860 4622 c0 -12 11 -55 25 -94 33 -94 31 -105 -6 -38 -16 30 -41
66 -56 80 l-25 25 6 -30 c4 -16 24 -66 46 -110 21 -44 60 -129 85 -189 48
-117 89 -188 130 -226 31 -29 31 -22 1 38 -13 26 -35 83 -50 128 -15 45 -41
103 -58 130 -23 37 -25 44 -9 30 12 -11 24 -16 28 -13 16 16 -56 204 -106 277
-9 12 -11 11 -11 -8z"/>
<path d="M2185 4420 c-3 -5 -2 -10 4 -10 5 0 13 5 16 10 3 6 2 10 -4 10 -5 0
-13 -4 -16 -10z"/>
<path d="M2210 4301 c0 -16 20 -23 46 -17 36 9 29 26 -11 26 -19 0 -35 -4 -35
-9z"/>
<path d="M2510 4286 c0 -8 5 -18 10 -21 6 -3 10 3 10 14 0 12 -4 21 -10 21 -5
0 -10 -6 -10 -14z"/>
<path d="M2637 4154 c-2 -3 4 -27 16 -53 11 -27 17 -56 14 -65 -10 -25 -56
-20 -130 14 -113 51 -153 37 -107 -38 11 -18 20 -39 20 -46 0 -8 30 -26 68
-41 37 -15 113 -51 170 -81 94 -49 152 -67 152 -46 0 15 -58 99 -77 113 -27
19 -49 65 -58 119 -10 70 -25 109 -44 120 -10 5 -21 7 -24 4z"/>
<path d="M1960 4098 c1 -27 89 -218 144 -313 76 -128 303 -466 309 -457 2 4 2
1 0 -7 -6 -25 132 -239 217 -335 29 -33 77 -80 108 -105 30 -25 98 -85 149
-133 82 -76 103 -90 160 -108 77 -24 97 -16 73 28 -22 38 -109 101 -150 109
-26 4 -50 22 -92 69 -34 37 -55 69 -52 77 4 10 -5 16 -30 21 -40 8 -75 44
-111 117 -27 52 -33 58 -71 65 -61 11 -90 47 -123 154 -25 79 -62 141 -105
174 -19 14 -44 45 -54 69 -10 23 -54 85 -97 137 -97 118 -120 155 -152 239
-22 59 -108 211 -119 211 -2 0 -4 -6 -4 -12z"/>
<path d="M2405 3900 c-3 -5 3 -10 15 -10 12 0 18 5 15 10 -3 6 -10 10 -15 10
-5 0 -12 -4 -15 -10z"/>
<path d="M2410 3751 c0 -5 14 -19 30 -31 35 -25 40 -13 7 18 -25 24 -37 28
-37 13z"/>
<path d="M3040 3741 c0 -11 59 -36 67 -28 3 4 0 13 -7 22 -13 16 -60 21 -60 6z"/>
<path d="M2763 3703 c24 -27 21 -34 -9 -23 -36 14 -37 13 -31 -16 4 -24 2 -26
-24 -20 -38 7 -37 -3 6 -44 38 -37 43 -50 20 -50 -26 0 -16 -13 48 -64 65 -53
64 -70 -2 -36 -42 21 -54 15 -23 -12 9 -9 50 -32 90 -52 39 -20 97 -52 128
-72 101 -64 170 -83 105 -29 -24 21 -30 32 -25 51 5 20 -2 32 -35 62 -23 21
-41 47 -41 59 0 14 -15 30 -45 50 -25 15 -45 31 -45 36 0 4 17 7 38 7 35 1 36
2 17 15 -55 39 -53 54 11 75 19 6 34 15 34 20 0 11 -133 51 -190 58 -44 5 -45
4 -27 -15z"/>
<path d="M2535 3650 c8 -13 66 -43 71 -37 7 7 -47 47 -63 47 -8 0 -11 -5 -8
-10z"/>
<path d="M2425 3560 c10 -11 23 -20 28 -20 6 0 2 9 -8 20 -10 11 -23 20 -28
20 -6 0 -2 -9 8 -20z"/>
<path d="M3285 3340 c3 -5 8 -10 11 -10 2 0 4 5 4 10 0 6 -5 10 -11 10 -5 0
-7 -4 -4 -10z"/>
<path d="M3380 3291 c0 -5 5 -13 10 -16 6 -3 10 -2 10 4 0 5 -4 13 -10 16 -5
3 -10 2 -10 -4z"/>
<path d="M2918 3224 c18 -8 38 -11 44 -8 15 9 -17 23 -52 22 -23 0 -22 -1 8
-14z"/>
<path d="M3172 3208 c5 -14 105 -51 122 -45 13 5 -87 57 -110 57 -8 0 -14 -6
-12 -12z"/>
<path d="M3034 3186 c11 -9 29 -16 40 -16 28 0 8 17 -29 25 -29 6 -29 6 -11
-9z"/>
<path d="M2913 3134 c-14 -38 45 -80 166 -116 46 -13 164 -6 185 11 26 22 6
34 -130 80 -130 44 -210 53 -221 25z"/>
<path d="M3276 3112 c97 -83 156 -112 221 -112 48 0 38 21 -18 40 -24 8 -72
30 -106 48 -55 28 -123 45 -97 24z"/>
<path d="M3420 3110 c0 -5 5 -10 11 -10 5 0 34 -11 62 -25 55 -25 196 -47 184
-28 -4 6 -29 16 -57 23 -27 6 -66 20 -87 31 -39 20 -113 26 -113 9z"/>
<path d="M4257 3014 c-13 -13 -7 -24 14 -24 11 0 19 5 17 12 -5 14 -22 21 -31
12z"/>
<path d="M3460 2946 c15 -19 74 -39 97 -33 13 3 5 10 -27 25 -54 26 -89 30
-70 8z"/>
<path d="M3078 2943 c7 -3 16 -2 19 1 4 3 -2 6 -13 5 -11 0 -14 -3 -6 -6z"/>
<path d="M3310 2940 c0 -5 5 -10 11 -10 5 0 7 5 4 10 -3 6 -8 10 -11 10 -2 0
-4 -4 -4 -10z"/>
<path d="M4362 2908 c3 -7 13 -15 24 -17 16 -3 17 -1 5 13 -16 19 -34 21 -29
4z"/>
<path d="M3440 2831 c0 -17 47 -48 94 -61 71 -20 76 -6 11 27 -74 37 -105 48
-105 34z"/>
<path d="M3595 2820 c3 -5 13 -10 21 -10 8 0 14 5 14 10 0 6 -9 10 -21 10 -11
0 -17 -4 -14 -10z"/>
<path d="M3347 2804 c-10 -11 3 -24 24 -24 23 0 25 15 3 24 -19 7 -19 7 -27 0z"/>
<path d="M5965 2697 c-4 -10 -5 -21 -1 -24 10 -10 18 4 13 24 -4 17 -4 17 -12
0z"/>
<path d="M3318 2663 c-10 -2 -18 -9 -18 -14 0 -15 53 -6 58 9 4 12 -8 14 -40
5z"/>
<path d="M3578 2648 c17 -8 26 -8 34 0 9 9 4 12 -22 11 -33 0 -34 -1 -12 -11z"/>
<path d="M3691 2631 c-11 -7 -10 -11 7 -20 29 -15 52 -14 52 4 0 8 -4 15 -9
15 -5 0 -15 2 -23 5 -7 3 -19 1 -27 -4z"/>
<path d="M3997 2594 c-10 -10 2 -24 22 -24 9 0 26 7 37 15 18 13 17 14 -17 15
-20 0 -39 -3 -42 -6z"/>
<path d="M5730 2580 c-8 -5 -11 -12 -8 -16 10 -9 38 3 38 16 0 12 -10 13 -30
0z"/>
<path d="M3400 2510 c0 -5 5 -10 10 -10 6 0 10 5 10 10 0 6 -4 10 -10 10 -5 0
-10 -4 -10 -10z"/>
<path d="M3355 2465 c17 -14 99 -60 184 -102 155 -77 188 -108 63 -58 -37 14
-116 52 -177 84 -131 68 -162 81 -126 51 98 -83 552 -273 755 -316 102 -22
600 -91 741 -103 66 -6 170 -11 232 -11 122 0 313 17 326 30 19 18 -115 30
-259 24 -108 -5 -161 -3 -194 6 -28 8 -120 14 -245 15 -161 2 -228 7 -345 27
-131 23 -168 34 -385 121 -230 91 -367 152 -485 216 -30 17 -68 33 -85 36
l-30 6 30 -26z"/>
<path d="M3546 2471 c-9 -15 23 -36 36 -23 5 5 7 15 4 21 -9 13 -33 14 -40 2z"/>
<path d="M4760 2422 c-33 -11 -120 -85 -120 -103 0 -23 18 -24 49 -3 19 14 25
14 32 3 5 -8 9 -20 9 -26 0 -20 25 -15 48 10 39 42 25 134 -18 119z"/>
<path d="M4620 2385 c-7 -8 -8 -15 -2 -15 5 0 15 7 22 15 7 8 8 15 2 15 -5 0
-15 -7 -22 -15z"/>
<path d="M4885 2366 c-38 -16 -59 -41 -51 -61 8 -22 18 -19 64 21 60 51 54 69
-13 40z"/>
<path d="M5615 2368 c-20 -11 -35 -28 -35 -39 0 -6 298 -23 391 -22 53 1 99
15 99 31 0 12 -263 42 -355 42 -44 0 -89 -6 -100 -12z"/>
<path d="M6435 2359 c-10 -15 3 -25 16 -12 7 7 7 13 1 17 -6 3 -14 1 -17 -5z"/>
<path d="M6177 2343 c-12 -11 -8 -23 8 -23 8 0 15 7 15 15 0 16 -12 20 -23 8z"/>
<path d="M6578 2343 c-16 -2 -28 -8 -28 -12 0 -16 55 -19 150 -10 133 14 139
29 10 28 -58 -1 -117 -4 -132 -6z"/>
<path d="M3787 2324 c-10 -11 3 -24 24 -24 10 0 19 7 19 15 0 15 -31 21 -43 9z"/>
<path d="M4995 2288 c-8 -13 -11 -24 -6 -26 12 -4 61 27 61 39 0 18 -39 8 -55
-13z"/>
<path d="M4365 2289 c-4 -6 -5 -13 -2 -16 7 -7 27 6 27 18 0 12 -17 12 -25 -2z"/>
<path d="M4883 2283 c-25 -17 -31 -43 -10 -43 14 0 57 41 57 53 0 12 -24 7
-47 -10z"/>
<path d="M4001 2240 c31 -16 93 -38 139 -50 85 -22 210 -38 210 -27 0 11 -78
47 -100 47 -11 0 -81 14 -155 30 -74 17 -138 30 -142 30 -5 -1 17 -14 48 -30z"/>
<path d="M5129 2250 c-13 -10 -19 -19 -13 -20 7 0 22 9 35 20 13 10 19 19 13
20 -7 0 -22 -9 -35 -20z"/>
<path d="M5040 2245 c-19 -23 -1 -39 21 -19 10 9 19 21 19 26 0 13 -27 9 -40
-7z"/>
<path d="M5188 2231 c-18 -16 -30 -33 -26 -37 9 -8 88 42 88 56 0 19 -30 10
-62 -19z"/>
<path d="M5440 2050 c-8 -5 -11 -12 -8 -16 10 -9 38 3 38 16 0 12 -10 13 -30
0z"/>
</g>
</svg>
