<?xml version="1.0" standalone="no"?>
<!DOCTYPE svg PUBLIC "-//W3C//DTD SVG 20010904//EN"
 "http://www.w3.org/TR/2001/REC-SVG-20010904/DTD/svg10.dtd">
<svg version="1.0" xmlns="http://www.w3.org/2000/svg"
 width="512.000000pt" height="512.000000pt" viewBox="0 0 512.000000 512.000000"
 preserveAspectRatio="xMidYMid meet">

<g transform="translate(0.000000,512.000000) scale(0.100000,-0.100000)"
fill="#000000" stroke="none">
<path d="M2415 4943 c-73 -15 -191 -69 -285 -128 -87 -56 -152 -75 -285 -86
-175 -14 -258 -39 -376 -114 -129 -83 -210 -187 -279 -359 -56 -139 -91 -184
-243 -310 -197 -164 -282 -455 -207 -711 11 -38 23 -106 26 -150 6 -70 3 -96
-22 -190 -36 -137 -40 -302 -10 -400 45 -148 116 -255 246 -366 121 -103 156
-152 209 -283 54 -134 84 -181 175 -271 66 -66 98 -89 173 -125 l93 -45 0
-551 0 -550 29 -46 c34 -54 100 -90 177 -96 91 -8 130 19 404 277 275 260 294
272 383 252 51 -11 62 -20 277 -237 124 -124 242 -234 262 -245 56 -29 116
-34 179 -15 61 18 87 37 123 91 l26 38 0 541 1 541 89 43 c157 76 276 207 341
377 59 152 88 193 215 300 190 162 269 324 268 550 0 87 -6 131 -27 210 -35
128 -35 202 0 330 21 79 27 123 27 210 1 128 -17 205 -70 311 -45 91 -95 152
-202 244 -112 98 -154 154 -197 266 -52 132 -100 206 -186 289 -55 52 -100 84
-160 114 -105 51 -173 68 -319 80 -131 11 -194 31 -291 91 -203 128 -371 165
-564 123z m316 -172 c30 -11 82 -37 115 -58 175 -107 239 -130 410 -143 151
-12 236 -39 327 -103 61 -44 129 -121 160 -182 8 -16 29 -67 46 -111 17 -45
53 -113 80 -150 46 -66 72 -92 194 -196 164 -140 217 -343 153 -582 -35 -133
-36 -247 0 -382 34 -134 39 -203 20 -292 -30 -143 -82 -219 -257 -373 -95 -84
-139 -149 -193 -281 -50 -123 -85 -177 -159 -244 -101 -92 -193 -127 -367
-139 -98 -6 -218 -33 -273 -61 -18 -9 -70 -40 -117 -70 -117 -73 -192 -97
-305 -98 -117 -1 -202 26 -316 98 -149 94 -220 117 -425 135 -129 12 -199 35
-287 95 -76 51 -157 156 -188 240 -12 34 -40 97 -63 140 -40 80 -74 118 -247
281 -158 148 -201 315 -142 545 38 146 38 284 0 425 -42 156 -34 270 30 403
27 56 90 125 230 252 74 68 132 155 173 263 56 147 118 229 223 298 84 54 164
78 303 88 150 12 258 45 363 114 143 94 221 118 361 113 66 -2 112 -10 151
-25z m-730 -3422 c38 -11 99 -40 145 -71 94 -61 186 -102 272 -119 l62 -13 0
-151 0 -152 -54 -29 c-36 -19 -140 -109 -296 -257 -133 -125 -253 -230 -267
-233 -13 -4 -35 -2 -49 5 l-24 11 0 520 0 521 73 -6 c39 -4 102 -15 138 -26z
m1329 -479 c0 -661 25 -637 -314 -301 -224 222 -272 260 -343 276 l-33 7 0
147 0 147 62 13 c89 18 170 53 259 112 114 75 197 101 342 108 l27 1 0 -510z"/>
<path d="M2410 4385 c-8 -2 -49 -9 -90 -15 -181 -30 -404 -127 -562 -245 -355
-266 -551 -677 -535 -1120 9 -241 57 -406 194 -660 39 -70 93 -135 213 -254
389 -386 988 -488 1499 -255 348 159 635 505 730 880 66 264 51 558 -42 805
-113 300 -344 562 -629 714 -198 105 -354 145 -593 150 -93 2 -177 2 -185 0z
m-435 -344 c-173 -241 -192 -614 -45 -890 45 -85 127 -180 201 -234 35 -26 71
-52 80 -59 12 -10 15 -25 12 -60 l-5 -46 -34 14 c-18 8 -45 14 -58 14 -27 0
-167 -69 -198 -97 -11 -9 -57 -25 -102 -34 -101 -20 -196 -64 -259 -119 l-46
-41 -26 51 c-40 79 -83 216 -100 320 -73 455 126 916 508 1171 49 32 93 59 98
59 5 0 -7 -22 -26 -49z m1297 -52 c124 -90 274 -272 351 -424 42 -85 87 -228
102 -331 34 -225 8 -437 -81 -647 l-36 -87 -34 29 c-69 61 -177 107 -294 126
-25 4 -54 15 -65 24 -11 10 -51 35 -90 56 -75 41 -148 51 -179 25 -21 -17 -22
-14 -28 42 l-5 47 54 36 c152 101 261 255 315 442 30 104 32 340 4 448 -19 73
-78 205 -118 265 l-23 35 35 -22 c19 -12 61 -41 92 -64z m-657 -351 c141 -61
201 -73 379 -73 l159 0 -6 -76 c-17 -217 -144 -418 -320 -503 -91 -44 -170
-59 -287 -54 -123 6 -190 28 -291 94 -144 95 -241 271 -256 464 l-6 76 61 -4
c89 -6 211 22 330 78 117 54 109 54 237 -2z m-45 -863 c58 0 123 4 145 8 l40
8 16 -67 15 -66 -102 -69 c-57 -38 -108 -69 -114 -69 -6 0 -58 32 -116 70 -87
59 -103 74 -95 88 5 9 12 38 16 64 l7 48 42 -8 c22 -4 88 -7 146 -7z m-544
-487 c133 -239 161 -276 216 -285 65 -10 88 4 210 125 l118 116 118 -116 c123
-122 149 -136 217 -124 49 10 77 47 210 284 l119 213 41 -7 c90 -15 188 -65
222 -114 14 -19 13 -25 -12 -60 -39 -57 -170 -179 -254 -238 -391 -274 -910
-282 -1316 -18 -91 59 -295 251 -295 278 0 18 77 92 117 112 34 17 126 44 154
45 11 1 55 -67 135 -211z"/>
</g>
</svg>
